<?xml version="1.0" encoding="utf-8"?>
<!-- Generator: Adobe Illustrator 15.0.2, SVG Export Plug-In . SVG Version: 6.00 Build 0)  -->
<!DOCTYPE svg PUBLIC "-//W3C//DTD SVG 1.1//EN" "http://www.w3.org/Graphics/SVG/1.1/DTD/svg11.dtd">
<svg version="1.1" id="Layer_1" xmlns="http://www.w3.org/2000/svg" xmlns:xlink="http://www.w3.org/1999/xlink" x="0px" y="0px"
	 width="780px" height="501px" viewBox="0 0 780 501" enable-background="new 0 0 780 501" xml:space="preserve">
<title>diners-outline</title>
<path stroke="#393939" stroke-width="30" d="M55,15h670c22.092,0,40,17.909,40,40v391c0,22.092-17.908,40-40,40H55
	c-22.091,0-40-17.908-40-40V55C15,32.909,32.909,15,55,15z"/>
<path fill="#373737" d="M426.039,84.847h-78.243c-92.003-0.033-167.73,68.705-167.73,168.1c0,90.93,75.727,165.64,167.73,165.204
	h78.242c90.913,0.437,173.894-74.292,173.894-165.203l0.002-0.001C599.934,153.532,516.954,84.814,426.039,84.847z M348.28,404.07
	c-84.07-0.027-152.194-68.303-152.214-152.561c0.02-84.272,68.144-152.553,152.214-152.58h0
	c84.09,0.027,152.228,68.308,152.239,152.58C500.508,335.768,432.37,404.043,348.28,404.07z"/>
<path fill="#393939" d="M252.066,251.098c0.08-41.18,25.746-76.296,61.94-90.25v180.48
	C277.812,327.381,252.146,292.284,252.066,251.098L252.066,251.098z M383.066,341.373V160.847
	c36.208,13.92,61.915,49.057,61.98,90.256C444.98,292.316,419.273,327.426,383.066,341.373L383.066,341.373z"/>
</svg>
